<svg width="83" height="44" viewBox="0 0 83 44" fill="none" xmlns="http://www.w3.org/2000/svg">
<path d="M9.90332 25.2573V24.2905L17.8135 20.5991V21.5659L10.668 24.8091L17.8135 27.9819V28.9487L9.90332 25.2573ZM31.2607 29.1245C30.499 29.3003 29.6787 29.3882 28.7998 29.3882C25.6943 29.3882 24.1416 27.7915 24.1416 24.5981C24.1416 21.6392 25.6943 20.1597 28.7998 20.1597C29.6787 20.1597 30.499 20.2476 31.2607 20.4233V21.2144C30.4404 21.0386 29.6494 20.9507 28.8877 20.9507C26.3975 20.9507 25.1523 22.1665 25.1523 24.5981C25.1523 27.2642 26.3975 28.5972 28.8877 28.5972C29.6494 28.5972 30.4404 28.5093 31.2607 28.3335V29.1245ZM38.7402 28.0347C39.6719 28.3511 40.5303 28.5093 41.3154 28.5093C43.7002 28.5093 44.8926 27.1821 44.8926 24.5278C44.8926 22.1665 43.7061 20.9858 41.333 20.9858C40.5127 20.9858 39.6484 21.0562 38.7402 21.1968V28.0347ZM37.8174 20.5376C38.8662 20.2856 40.0439 20.1597 41.3506 20.1597C44.3096 20.1597 45.7891 21.6216 45.7891 24.5454C45.7891 27.7739 44.3008 29.3882 41.3242 29.3882C40.5859 29.3882 39.7246 29.2417 38.7402 28.9487V32.728H37.8174V20.5376ZM52.4775 29.3882H51.4668L57.8389 16.8198H58.8496L52.4775 29.3882ZM65.1865 28.9487V27.9819L72.332 24.8091L65.1865 21.5659V20.5991L73.0967 24.2905V25.2573L65.1865 28.9487Z" fill="#F88600"/>
<path d="M9.90332 25.2573H8.90332V25.8942L9.48043 26.1635L9.90332 25.2573ZM9.90332 24.2905L9.48043 23.3843L8.90332 23.6537V24.2905H9.90332ZM17.8135 20.5991H18.8135V19.0289L17.3906 19.6929L17.8135 20.5991ZM17.8135 21.5659L18.2268 22.4765L18.8135 22.2102V21.5659H17.8135ZM10.668 24.8091L10.2547 23.8985L8.22637 24.8191L10.2621 25.723L10.668 24.8091ZM17.8135 27.9819H18.8135V27.3318L18.2193 27.068L17.8135 27.9819ZM17.8135 28.9487L17.3906 29.8549L18.8135 30.5189V28.9487H17.8135ZM10.9033 25.2573V24.2905H8.90332V25.2573H10.9033ZM10.3262 25.1967L18.2364 21.5053L17.3906 19.6929L9.48043 23.3843L10.3262 25.1967ZM16.8135 20.5991V21.5659H18.8135V20.5991H16.8135ZM17.4002 20.6553L10.2547 23.8985L11.0813 25.7197L18.2268 22.4765L17.4002 20.6553ZM10.2621 25.723L17.4077 28.8959L18.2193 27.068L11.0738 23.8951L10.2621 25.723ZM16.8135 27.9819V28.9487H18.8135V27.9819H16.8135ZM18.2364 28.0425L10.3262 24.3511L9.48043 26.1635L17.3906 29.8549L18.2364 28.0425ZM31.2607 29.1245L31.4856 30.0989L32.2607 29.92V29.1245H31.2607ZM31.2607 20.4233H32.2607V19.6278L31.4856 19.4489L31.2607 20.4233ZM31.2607 21.2144L31.0512 22.1922L32.2607 22.4513V21.2144H31.2607ZM31.2607 28.3335H32.2607V27.0965L31.0512 27.3557L31.2607 28.3335ZM31.0359 28.1501C30.3564 28.3069 29.6122 28.3882 28.7998 28.3882V30.3882C29.7452 30.3882 30.6417 30.2937 31.4856 30.0989L31.0359 28.1501ZM28.7998 28.3882C27.4084 28.3882 26.5469 28.0321 26.0231 27.4935C25.4942 26.9497 25.1416 26.0476 25.1416 24.5981H23.1416C23.1416 26.3421 23.5654 27.835 24.5892 28.8878C25.6182 29.9459 27.0857 30.3882 28.7998 30.3882V28.3882ZM25.1416 24.5981C25.1416 23.2854 25.4836 22.4815 25.996 21.9933C26.5174 21.4964 27.3895 21.1597 28.7998 21.1597V19.1597C27.1047 19.1597 25.6476 19.5626 24.6163 20.5453C23.576 21.5366 23.1416 22.9519 23.1416 24.5981H25.1416ZM28.7998 21.1597C29.6122 21.1597 30.3564 21.2409 31.0359 21.3977L31.4856 19.4489C30.6417 19.2542 29.7452 19.1597 28.7998 19.1597V21.1597ZM30.2607 20.4233V21.2144H32.2607V20.4233H30.2607ZM31.4703 20.2366C30.588 20.0475 29.7265 19.9507 28.8877 19.9507V21.9507C29.5723 21.9507 30.2929 22.0297 31.0512 22.1922L31.4703 20.2366ZM28.8877 19.9507C27.4943 19.9507 26.2645 20.2907 25.3875 21.1471C24.5062 22.0077 24.1523 23.2221 24.1523 24.5981H26.1523C26.1523 23.5426 26.4211 22.9332 26.7848 22.578C27.153 22.2185 27.7908 21.9507 28.8877 21.9507V19.9507ZM24.1523 24.5981C24.1523 26.069 24.4944 27.3583 25.3554 28.28C26.2283 29.2146 27.4703 29.5972 28.8877 29.5972V27.5972C27.8149 27.5972 27.1891 27.3132 26.817 26.9148C26.4328 26.5035 26.1523 25.7933 26.1523 24.5981H24.1523ZM28.8877 29.5972C29.7265 29.5972 30.588 29.5004 31.4703 29.3113L31.0512 27.3557C30.2929 27.5182 29.5723 27.5972 28.8877 27.5972V29.5972ZM30.2607 28.3335V29.1245H32.2607V28.3335H30.2607ZM38.7402 28.0347H37.7402V28.7511L38.4187 28.9816L38.7402 28.0347ZM38.7402 21.1968L38.5872 20.2086L37.7402 20.3397V21.1968H38.7402ZM37.8174 20.5376L37.5838 19.5653L36.8174 19.7494V20.5376H37.8174ZM38.7402 28.9487L39.0255 27.9903L37.7402 27.6078V28.9487H38.7402ZM38.7402 32.728V33.728H39.7402V32.728H38.7402ZM37.8174 32.728H36.8174V33.728H37.8174V32.728ZM38.4187 28.9816C39.4288 29.3246 40.3972 29.5093 41.3154 29.5093V27.5093C40.6633 27.5093 39.915 27.3775 39.0618 27.0878L38.4187 28.9816ZM41.3154 29.5093C42.6913 29.5093 43.8983 29.1215 44.7422 28.1822C45.5678 27.2633 45.8926 25.9843 45.8926 24.5278H43.8926C43.8926 25.7257 43.6212 26.4374 43.2544 26.8456C42.9059 27.2335 42.3244 27.5093 41.3154 27.5093V29.5093ZM45.8926 24.5278C45.8926 23.1918 45.5561 22.0063 44.708 21.1625C43.8609 20.3196 42.6724 19.9858 41.333 19.9858V21.9858C42.3666 21.9858 42.9579 22.2425 43.2973 22.5802C43.6358 22.917 43.8926 23.5026 43.8926 24.5278H45.8926ZM41.333 19.9858C40.4558 19.9858 39.5401 20.061 38.5872 20.2086L38.8932 22.185C39.7568 22.0513 40.5696 21.9858 41.333 21.9858V19.9858ZM37.7402 21.1968V28.0347H39.7402V21.1968H37.7402ZM38.051 21.5099C39.0092 21.2797 40.1067 21.1597 41.3506 21.1597V19.1597C39.9812 19.1597 38.7232 19.2915 37.5838 19.5653L38.051 21.5099ZM41.3506 21.1597C42.6789 21.1597 43.4909 21.4875 43.9766 21.9674C44.46 22.4451 44.7891 23.2407 44.7891 24.5454H46.7891C46.7891 22.9263 46.3783 21.529 45.3823 20.5448C44.3885 19.5628 42.9812 19.1597 41.3506 19.1597V21.1597ZM44.7891 24.5454C44.7891 26.0248 44.4464 26.9478 43.9376 27.4997C43.4431 28.0361 42.6365 28.3882 41.3242 28.3882V30.3882C42.9885 30.3882 44.4144 29.9331 45.4081 28.8553C46.3876 27.7929 46.7891 26.2946 46.7891 24.5454H44.7891ZM41.3242 28.3882C40.712 28.3882 39.9506 28.2656 39.0255 27.9903L38.455 29.9072C39.4987 30.2178 40.4599 30.3882 41.3242 30.3882V28.3882ZM37.7402 28.9487V32.728H39.7402V28.9487H37.7402ZM38.7402 31.728H37.8174V33.728H38.7402V31.728ZM38.8174 32.728V20.5376H36.8174V32.728H38.8174ZM52.4775 29.3882V30.3882H53.0917L53.3695 29.8404L52.4775 29.3882ZM51.4668 29.3882L50.5749 28.936L49.8386 30.3882H51.4668V29.3882ZM57.8389 16.8198V15.8198H57.2247L56.9469 16.3676L57.8389 16.8198ZM58.8496 16.8198L59.7415 17.272L60.4778 15.8198H58.8496V16.8198ZM52.4775 28.3882H51.4668V30.3882H52.4775V28.3882ZM52.3587 29.8404L58.7308 17.272L56.9469 16.3676L50.5749 28.936L52.3587 29.8404ZM57.8389 17.8198H58.8496V15.8198H57.8389V17.8198ZM57.9577 16.3676L51.5856 28.936L53.3695 29.8404L59.7415 17.272L57.9577 16.3676ZM65.1865 28.9487H64.1865V30.5189L65.6094 29.8549L65.1865 28.9487ZM65.1865 27.9819L64.7807 27.068L64.1865 27.3318V27.9819H65.1865ZM72.332 24.8091L72.7379 25.723L74.7736 24.8191L72.7453 23.8985L72.332 24.8091ZM65.1865 21.5659H64.1865V22.2102L64.7732 22.4765L65.1865 21.5659ZM65.1865 20.5991L65.6094 19.6929L64.1865 19.0289V20.5991H65.1865ZM73.0967 24.2905H74.0967V23.6537L73.5196 23.3843L73.0967 24.2905ZM73.0967 25.2573L73.5196 26.1635L74.0967 25.8942V25.2573H73.0967ZM66.1865 28.9487V27.9819H64.1865V28.9487H66.1865ZM65.5923 28.8959L72.7379 25.723L71.9262 23.8951L64.7807 27.068L65.5923 28.8959ZM72.7453 23.8985L65.5998 20.6553L64.7732 22.4765L71.9187 25.7197L72.7453 23.8985ZM66.1865 21.5659V20.5991H64.1865V21.5659H66.1865ZM64.7636 21.5053L72.6738 25.1967L73.5196 23.3843L65.6094 19.6929L64.7636 21.5053ZM72.0967 24.2905V25.2573H74.0967V24.2905H72.0967ZM72.6738 24.3511L64.7636 28.0425L65.6094 29.8549L73.5196 26.1635L72.6738 24.3511Z" fill="#F88600"/>
<path d="M9.90332 22.8691V21.9023L17.8135 18.2109V19.1777L10.668 22.4209L17.8135 25.5938V26.5605L9.90332 22.8691ZM31.2607 26.7363C30.499 26.9121 29.6787 27 28.7998 27C25.6943 27 24.1416 25.4033 24.1416 22.21C24.1416 19.251 25.6943 17.7715 28.7998 17.7715C29.6787 17.7715 30.499 17.8594 31.2607 18.0352V18.8262C30.4404 18.6504 29.6494 18.5625 28.8877 18.5625C26.3975 18.5625 25.1523 19.7783 25.1523 22.21C25.1523 24.876 26.3975 26.209 28.8877 26.209C29.6494 26.209 30.4404 26.1211 31.2607 25.9453V26.7363ZM38.7402 25.6465C39.6719 25.9629 40.5303 26.1211 41.3154 26.1211C43.7002 26.1211 44.8926 24.7939 44.8926 22.1396C44.8926 19.7783 43.7061 18.5977 41.333 18.5977C40.5127 18.5977 39.6484 18.668 38.7402 18.8086V25.6465ZM37.8174 18.1494C38.8662 17.8975 40.0439 17.7715 41.3506 17.7715C44.3096 17.7715 45.7891 19.2334 45.7891 22.1572C45.7891 25.3857 44.3008 27 41.3242 27C40.5859 27 39.7246 26.8535 38.7402 26.5605V30.3398H37.8174V18.1494ZM52.4775 27H51.4668L57.8389 14.4316H58.8496L52.4775 27ZM65.1865 26.5605V25.5938L72.332 22.4209L65.1865 19.1777V18.2109L73.0967 21.9023V22.8691L65.1865 26.5605Z" fill="white"/>
<path d="M9.90332 22.8691H8.90332V23.506L9.48043 23.7753L9.90332 22.8691ZM9.90332 21.9023L9.48043 20.9962L8.90332 21.2655V21.9023H9.90332ZM17.8135 18.2109H18.8135V16.6407L17.3906 17.3048L17.8135 18.2109ZM17.8135 19.1777L18.2268 20.0883L18.8135 19.822V19.1777H17.8135ZM10.668 22.4209L10.2547 21.5103L8.22637 22.4309L10.2621 23.3348L10.668 22.4209ZM17.8135 25.5938H18.8135V24.9436L18.2193 24.6798L17.8135 25.5938ZM17.8135 26.5605L17.3906 27.4667L18.8135 28.1307V26.5605H17.8135ZM10.9033 22.8691V21.9023H8.90332V22.8691H10.9033ZM10.3262 22.8085L18.2364 19.1171L17.3906 17.3048L9.48043 20.9962L10.3262 22.8085ZM16.8135 18.2109V19.1777H18.8135V18.2109H16.8135ZM17.4002 18.2671L10.2547 21.5103L11.0813 23.3315L18.2268 20.0883L17.4002 18.2671ZM10.2621 23.3348L17.4077 26.5077L18.2193 24.6798L11.0738 21.5069L10.2621 23.3348ZM16.8135 25.5938V26.5605H18.8135V25.5938H16.8135ZM18.2364 25.6544L10.3262 21.963L9.48043 23.7753L17.3906 27.4667L18.2364 25.6544ZM31.2607 26.7363L31.4856 27.7107L32.2607 27.5318V26.7363H31.2607ZM31.2607 18.0352H32.2607V17.2396L31.4856 17.0608L31.2607 18.0352ZM31.2607 18.8262L31.0512 19.804L32.2607 20.0632V18.8262H31.2607ZM31.2607 25.9453H32.2607V24.7083L31.0512 24.9675L31.2607 25.9453ZM31.0359 25.7619C30.3564 25.9187 29.6122 26 28.7998 26V28C29.7452 28 30.6417 27.9055 31.4856 27.7107L31.0359 25.7619ZM28.7998 26C27.4084 26 26.5469 25.644 26.0231 25.1053C25.4942 24.5615 25.1416 23.6594 25.1416 22.21H23.1416C23.1416 23.9539 23.5654 25.4468 24.5892 26.4997C25.6182 27.5577 27.0857 28 28.7998 28V26ZM25.1416 22.21C25.1416 20.8973 25.4836 20.0933 25.996 19.6051C26.5174 19.1083 27.3895 18.7715 28.7998 18.7715V16.7715C27.1047 16.7715 25.6476 17.1745 24.6163 18.1571C23.576 19.1484 23.1416 20.5637 23.1416 22.21H25.1416ZM28.7998 18.7715C29.6122 18.7715 30.3564 18.8527 31.0359 19.0095L31.4856 17.0608C30.6417 16.866 29.7452 16.7715 28.7998 16.7715V18.7715ZM30.2607 18.0352V18.8262H32.2607V18.0352H30.2607ZM31.4703 17.8484C30.588 17.6593 29.7265 17.5625 28.8877 17.5625V19.5625C29.5723 19.5625 30.2929 19.6415 31.0512 19.804L31.4703 17.8484ZM28.8877 17.5625C27.4943 17.5625 26.2645 17.9026 25.3875 18.7589C24.5062 19.6195 24.1523 20.8339 24.1523 22.21H26.1523C26.1523 21.1544 26.4211 20.545 26.7848 20.1898C27.153 19.8304 27.7908 19.5625 28.8877 19.5625V17.5625ZM24.1523 22.21C24.1523 23.6808 24.4944 24.9701 25.3554 25.8918C26.2283 26.8264 27.4703 27.209 28.8877 27.209V25.209C27.8149 25.209 27.1891 24.9251 26.817 24.5266C26.4328 24.1153 26.1523 23.4051 26.1523 22.21H24.1523ZM28.8877 27.209C29.7265 27.209 30.588 27.1122 31.4703 26.9231L31.0512 24.9675C30.2929 25.13 29.5723 25.209 28.8877 25.209V27.209ZM30.2607 25.9453V26.7363H32.2607V25.9453H30.2607ZM38.7402 25.6465H37.7402V26.363L38.4187 26.5934L38.7402 25.6465ZM38.7402 18.8086L38.5872 17.8204L37.7402 17.9515V18.8086H38.7402ZM37.8174 18.1494L37.5838 17.1771L36.8174 17.3612V18.1494H37.8174ZM38.7402 26.5605L39.0255 25.6021L37.7402 25.2196V26.5605H38.7402ZM38.7402 30.3398V31.3398H39.7402V30.3398H38.7402ZM37.8174 30.3398H36.8174V31.3398H37.8174V30.3398ZM38.4187 26.5934C39.4288 26.9364 40.3972 27.1211 41.3154 27.1211V25.1211C40.6633 25.1211 39.915 24.9894 39.0618 24.6996L38.4187 26.5934ZM41.3154 27.1211C42.6913 27.1211 43.8983 26.7333 44.7422 25.7941C45.5678 24.8751 45.8926 23.5961 45.8926 22.1396H43.8926C43.8926 23.3375 43.6212 24.0492 43.2544 24.4574C42.9059 24.8453 42.3244 25.1211 41.3154 25.1211V27.1211ZM45.8926 22.1396C45.8926 20.8036 45.5561 19.6181 44.708 18.7743C43.8609 17.9314 42.6724 17.5977 41.333 17.5977V19.5977C42.3666 19.5977 42.9579 19.8543 43.2973 20.192C43.6358 20.5288 43.8926 21.1144 43.8926 22.1396H45.8926ZM41.333 17.5977C40.4558 17.5977 39.5401 17.6728 38.5872 17.8204L38.8932 19.7968C39.7568 19.6631 40.5696 19.5977 41.333 19.5977V17.5977ZM37.7402 18.8086V25.6465H39.7402V18.8086H37.7402ZM38.051 19.1218C39.0092 18.8916 40.1067 18.7715 41.3506 18.7715V16.7715C39.9812 16.7715 38.7232 16.9034 37.5838 17.1771L38.051 19.1218ZM41.3506 18.7715C42.6789 18.7715 43.4909 19.0993 43.9766 19.5792C44.46 20.057 44.7891 20.8525 44.7891 22.1572H46.7891C46.7891 20.5381 46.3783 19.1408 45.3823 18.1566C44.3885 17.1746 42.9812 16.7715 41.3506 16.7715V18.7715ZM44.7891 22.1572C44.7891 23.6366 44.4464 24.5597 43.9376 25.1115C43.4431 25.6479 42.6365 26 41.3242 26V28C42.9885 28 44.4144 27.545 45.4081 26.4671C46.3876 25.4047 46.7891 23.9064 46.7891 22.1572H44.7891ZM41.3242 26C40.712 26 39.9506 25.8774 39.0255 25.6021L38.455 27.519C39.4987 27.8296 40.4599 28 41.3242 28V26ZM37.7402 26.5605V30.3398H39.7402V26.5605H37.7402ZM38.7402 29.3398H37.8174V31.3398H38.7402V29.3398ZM38.8174 30.3398V18.1494H36.8174V30.3398H38.8174ZM52.4775 27V28H53.0917L53.3695 27.4522L52.4775 27ZM51.4668 27L50.5749 26.5478L49.8386 28H51.4668V27ZM57.8389 14.4316V13.4316H57.2247L56.9469 13.9794L57.8389 14.4316ZM58.8496 14.4316L59.7415 14.8838L60.4778 13.4316H58.8496V14.4316ZM52.4775 26H51.4668V28H52.4775V26ZM52.3587 27.4522L58.7308 14.8838L56.9469 13.9794L50.5749 26.5478L52.3587 27.4522ZM57.8389 15.4316H58.8496V13.4316H57.8389V15.4316ZM57.9577 13.9794L51.5856 26.5478L53.3695 27.4522L59.7415 14.8838L57.9577 13.9794ZM65.1865 26.5605H64.1865V28.1307L65.6094 27.4667L65.1865 26.5605ZM65.1865 25.5938L64.7807 24.6798L64.1865 24.9436V25.5938H65.1865ZM72.332 22.4209L72.7379 23.3348L74.7736 22.4309L72.7453 21.5103L72.332 22.4209ZM65.1865 19.1777H64.1865V19.822L64.7732 20.0883L65.1865 19.1777ZM65.1865 18.2109L65.6094 17.3048L64.1865 16.6407V18.2109H65.1865ZM73.0967 21.9023H74.0967V21.2655L73.5196 20.9962L73.0967 21.9023ZM73.0967 22.8691L73.5196 23.7753L74.0967 23.506V22.8691H73.0967ZM66.1865 26.5605V25.5938H64.1865V26.5605H66.1865ZM65.5923 26.5077L72.7379 23.3348L71.9262 21.5069L64.7807 24.6798L65.5923 26.5077ZM72.7453 21.5103L65.5998 18.2671L64.7732 20.0883L71.9187 23.3315L72.7453 21.5103ZM66.1865 19.1777V18.2109H64.1865V19.1777H66.1865ZM64.7636 19.1171L72.6738 22.8085L73.5196 20.9962L65.6094 17.3048L64.7636 19.1171ZM72.0967 21.9023V22.8691H74.0967V21.9023H72.0967ZM72.6738 21.963L64.7636 25.6544L65.6094 27.4667L73.5196 23.7753L72.6738 21.963Z" fill="white"/>
</svg>
