<svg width="606" height="147" viewBox="0 0 606 147" fill="none" xmlns="http://www.w3.org/2000/svg">
<path d="M606 80H0" stroke="#F88600" stroke-width="4"/>
<path d="M121.433 48.84C124.463 48.84 127.108 48.072 129.369 46.536C131.673 45 133.38 42.9307 134.489 40.328H139.545C138.137 44.3387 135.812 47.496 132.569 49.8C129.113 52.2747 125.039 53.512 120.345 53.512C114.159 53.512 109.145 51.4 105.305 47.176C101.679 43.1227 99.8652 38.0027 99.8652 31.816C99.8652 25.6293 101.679 20.5093 105.305 16.456C109.145 12.232 114.159 10.12 120.345 10.12C125.039 10.12 129.113 11.3573 132.569 13.832C135.812 16.136 138.137 19.2933 139.545 23.304H134.489C133.38 20.7013 131.673 18.632 129.369 17.096C127.108 15.56 124.463 14.792 121.433 14.792C118.404 14.792 115.887 15.24 113.881 16.136C111.876 16.9893 110.191 18.184 108.825 19.72C106.052 22.8347 104.665 26.8667 104.665 31.816C104.665 36.7653 106.052 40.7973 108.825 43.912C111.727 47.1973 115.929 48.84 121.433 48.84ZM150.517 8.2V25.992C151.669 24.456 153.077 23.1547 154.741 22.088C156.405 21.0213 158.303 20.488 160.437 20.488C162.57 20.488 164.405 20.7867 165.941 21.384C167.477 21.9813 168.821 22.8773 169.973 24.072C172.618 26.6747 173.941 30.1093 173.941 34.376V53H169.141V34.504C169.141 31.56 168.309 29.2133 166.645 27.464C164.981 25.7147 162.826 24.84 160.181 24.84C157.493 24.84 155.21 25.736 153.333 27.528C151.455 29.3627 150.517 31.7093 150.517 34.568V53H145.717V8.2H150.517ZM198.863 20.488V25.288H198.287C194.831 25.288 192.015 26.6747 189.839 29.448C187.791 32.0933 186.767 35.2507 186.767 38.92V53H181.967V21H186.767V28.872C187.791 25.544 190.009 23.0907 193.423 21.512C194.831 20.8293 196.537 20.488 198.543 20.488H198.863ZM204.029 21H208.829V53H204.029V21ZM209.021 9.352V15.624H203.837V9.352H209.021ZM235.97 29.576C235.544 26.248 232.856 24.584 227.906 24.584C223 24.584 220.546 26.12 220.546 29.192C220.546 30.472 221.058 31.4533 222.082 32.136C223.149 32.776 224.472 33.3093 226.05 33.736C227.629 34.1627 229.336 34.568 231.17 34.952C233.048 35.2933 234.776 35.8053 236.354 36.488C237.933 37.128 239.234 38.024 240.258 39.176C241.325 40.328 241.858 41.9067 241.858 43.912C241.858 47.0267 240.685 49.416 238.338 51.08C235.992 52.7013 232.813 53.512 228.802 53.512C224.536 53.512 221.144 52.4453 218.626 50.312C216.322 48.4347 215.085 45.9813 214.914 42.952H219.906C220.205 45.896 221.869 47.88 224.898 48.904C226.008 49.2453 227.096 49.416 228.162 49.416C229.272 49.416 230.296 49.352 231.234 49.224C232.173 49.096 233.09 48.8613 233.986 48.52C236.034 47.7093 237.058 46.3227 237.058 44.36C237.058 43.0373 236.525 42.0347 235.458 41.352C234.434 40.6267 233.133 40.0507 231.554 39.624C229.976 39.1547 228.248 38.7493 226.37 38.408C224.536 38.024 222.829 37.512 221.25 36.872C219.672 36.232 218.349 35.3573 217.282 34.248C216.258 33.1387 215.746 31.6027 215.746 29.64C215.746 26.7387 216.792 24.4987 218.882 22.92C221.016 21.2987 224.152 20.488 228.29 20.488C232.216 20.488 235.309 21.4267 237.57 23.304C239.448 24.8827 240.536 26.9733 240.834 29.576H235.97ZM267.478 53H262.678V10.632H281.75C286.23 10.632 289.793 11.8693 292.438 14.344C295.041 16.8187 296.342 20.1253 296.342 24.264C296.342 28.4453 295.02 31.7733 292.374 34.248C289.772 36.68 286.23 37.896 281.75 37.896H267.478V53ZM267.478 15.176V33.416H281.43C284.758 33.416 287.276 32.6053 288.982 30.984C290.689 29.3627 291.542 27.144 291.542 24.328C291.542 21.4693 290.689 19.2293 288.982 17.608C287.276 15.9867 284.758 15.176 281.43 15.176H267.478ZM326.427 47.88C323.867 51.6347 320.048 53.512 314.971 53.512C310.363 53.512 306.608 51.912 303.707 48.712C300.891 45.5547 299.483 41.6507 299.483 37C299.483 32.3493 300.891 28.4453 303.707 25.288C306.608 22.088 310.469 20.488 315.291 20.488C320.112 20.488 323.824 22.3867 326.427 26.184V21H331.227V53H326.427V47.88ZM315.611 49.16C319.067 49.16 321.797 47.9653 323.803 45.576C325.723 43.3147 326.683 40.456 326.683 37C326.683 33.544 325.723 30.6853 323.803 28.424C321.797 26.0347 319.067 24.84 315.611 24.84C312.197 24.84 309.424 26.0347 307.291 28.424C305.285 30.6853 304.283 33.544 304.283 37C304.283 40.456 305.285 43.3147 307.291 45.576C309.424 47.9653 312.197 49.16 315.611 49.16ZM342.985 53V25.224H336.457V21H342.985V9.544H347.785V21H355.145V25.224H347.785V53H342.985ZM383.508 53V48.008C382.356 49.544 380.948 50.8453 379.284 51.912C377.62 52.9787 375.722 53.512 373.588 53.512C371.455 53.512 369.62 53.2133 368.084 52.616C366.548 52.0187 365.204 51.1227 364.052 49.928C361.407 47.3253 360.084 43.8907 360.084 39.624V21H364.884V39.496C364.884 42.44 365.716 44.7867 367.38 46.536C369.044 48.2853 371.199 49.16 373.844 49.16C376.532 49.16 378.815 48.264 380.692 46.472C382.57 44.6373 383.508 42.2907 383.508 39.432V21H388.308V53H383.508ZM421.614 47.88C419.054 51.6347 415.236 53.512 410.158 53.512C405.55 53.512 401.796 51.912 398.894 48.712C396.078 45.5547 394.67 41.6507 394.67 37C394.67 32.3493 396.078 28.4453 398.894 25.288C401.796 22.088 405.657 20.488 410.478 20.488C415.3 20.488 419.012 22.3867 421.614 26.184V21H426.414V53H421.614V47.88ZM410.798 49.16C414.254 49.16 416.985 47.9653 418.99 45.576C420.91 43.3147 421.87 40.456 421.87 37C421.87 33.544 420.91 30.6853 418.99 28.424C416.985 26.0347 414.254 24.84 410.798 24.84C407.385 24.84 404.612 26.0347 402.478 28.424C400.473 30.6853 399.47 33.544 399.47 37C399.47 40.456 400.473 43.3147 402.478 45.576C404.612 47.9653 407.385 49.16 410.798 49.16ZM453.533 29.576C453.106 26.248 450.418 24.584 445.469 24.584C440.562 24.584 438.109 26.12 438.109 29.192C438.109 30.472 438.621 31.4533 439.645 32.136C440.711 32.776 442.034 33.3093 443.613 33.736C445.191 34.1627 446.898 34.568 448.733 34.952C450.61 35.2933 452.338 35.8053 453.917 36.488C455.495 37.128 456.797 38.024 457.821 39.176C458.887 40.328 459.421 41.9067 459.421 43.912C459.421 47.0267 458.247 49.416 455.901 51.08C453.554 52.7013 450.375 53.512 446.365 53.512C442.098 53.512 438.706 52.4453 436.189 50.312C433.885 48.4347 432.647 45.9813 432.477 42.952H437.469C437.767 45.896 439.431 47.88 442.461 48.904C443.57 49.2453 444.658 49.416 445.725 49.416C446.834 49.416 447.858 49.352 448.797 49.224C449.735 49.096 450.653 48.8613 451.549 48.52C453.597 47.7093 454.621 46.3227 454.621 44.36C454.621 43.0373 454.087 42.0347 453.021 41.352C451.997 40.6267 450.695 40.0507 449.117 39.624C447.538 39.1547 445.81 38.7493 443.933 38.408C442.098 38.024 440.391 37.512 438.813 36.872C437.234 36.232 435.911 35.3573 434.845 34.248C433.821 33.1387 433.309 31.6027 433.309 29.64C433.309 26.7387 434.354 24.4987 436.445 22.92C438.578 21.2987 441.714 20.488 445.853 20.488C449.778 20.488 452.871 21.4267 455.133 23.304C457.01 24.8827 458.098 26.9733 458.397 29.576H453.533ZM465.592 21H470.392V53H465.592V21ZM470.584 9.352V15.624H465.4V9.352H470.584ZM493.501 49.16C495.549 49.16 497.362 48.584 498.941 47.432C500.519 46.28 501.671 44.7867 502.397 42.952H507.581C506.599 46.1093 504.807 48.648 502.205 50.568C499.474 52.5307 496.231 53.512 492.477 53.512C487.783 53.512 483.965 51.912 481.021 48.712C478.162 45.5973 476.733 41.6933 476.733 37C476.733 32.3067 478.162 28.4027 481.021 25.288C483.965 22.088 487.783 20.488 492.477 20.488C496.231 20.488 499.474 21.4693 502.205 23.432C504.807 25.352 506.599 27.8907 507.581 31.048H502.397C501.671 29.2133 500.519 27.72 498.941 26.568C497.362 25.416 495.549 24.84 493.501 24.84C491.453 24.84 489.703 25.16 488.253 25.8C486.845 26.44 485.65 27.3147 484.669 28.424C482.578 30.728 481.533 33.5867 481.533 37C481.533 40.4133 482.578 43.272 484.669 45.576C486.802 47.9653 489.746 49.16 493.501 49.16Z" fill="#EEEEEE"/>
<path d="M175.639 112.2C175.259 112.52 174.999 112.88 174.859 113.28C174.739 113.68 174.679 114.11 174.679 114.57C174.679 115.01 174.869 115.42 175.249 115.8C175.649 116.18 176.169 116.5 176.809 116.76C177.449 117.02 178.179 117.25 178.999 117.45C179.819 117.65 180.649 117.86 181.489 118.08C182.349 118.28 183.189 118.52 184.009 118.8C184.829 119.06 185.559 119.4 186.199 119.82C187.619 120.72 188.329 121.95 188.329 123.51C188.329 125.37 187.629 126.79 186.229 127.77C184.849 128.75 182.929 129.24 180.469 129.24C177.689 129.24 175.569 128.66 174.109 127.5C172.809 126.46 172.069 124.98 171.889 123.06H174.229C174.309 124.42 174.969 125.46 176.209 126.18C177.289 126.8 178.719 127.11 180.499 127.11C184.219 127.11 186.079 125.94 186.079 123.6C186.079 122.8 185.739 122.17 185.059 121.71C184.399 121.25 183.559 120.87 182.539 120.57C181.539 120.27 180.449 119.99 179.269 119.73C178.109 119.47 177.019 119.14 175.999 118.74C174.999 118.32 174.159 117.78 173.479 117.12C172.819 116.44 172.489 115.53 172.489 114.39C172.489 112.77 173.109 111.45 174.349 110.43C175.589 109.41 177.459 108.9 179.959 108.9C182.479 108.9 184.429 109.48 185.809 110.64C187.069 111.66 187.739 112.97 187.819 114.57H185.509C185.309 112.93 184.249 111.84 182.329 111.3C181.649 111.1 180.799 111 179.779 111C178.779 111 177.929 111.12 177.229 111.36C176.549 111.58 176.019 111.86 175.639 112.2ZM197.846 113.76C200.086 113.76 201.906 114.51 203.306 116.01C204.626 117.45 205.286 119.28 205.286 121.5C205.286 123.72 204.626 125.55 203.306 126.99C201.906 128.49 200.086 129.24 197.846 129.24C195.606 129.24 193.786 128.49 192.386 126.99C191.066 125.55 190.406 123.72 190.406 121.5C190.406 119.28 191.066 117.45 192.386 116.01C193.786 114.51 195.606 113.76 197.846 113.76ZM197.846 127.2C199.466 127.2 200.746 126.64 201.686 125.52C202.586 124.46 203.036 123.12 203.036 121.5C203.036 119.88 202.586 118.54 201.686 117.48C200.746 116.36 199.466 115.8 197.846 115.8C196.226 115.8 194.946 116.36 194.006 117.48C193.106 118.54 192.656 119.88 192.656 121.5C192.656 123.12 193.106 124.46 194.006 125.52C194.946 126.64 196.226 127.2 197.846 127.2ZM214.543 109.89C213.483 109.89 212.683 110.13 212.143 110.61C211.623 111.07 211.363 111.82 211.363 112.86V114H214.843V115.98H211.363V129H209.113V115.98H206.533V114H209.113V112.68C209.113 111.04 209.603 109.81 210.583 108.99C211.563 108.17 212.923 107.76 214.663 107.76H214.843V109.89H214.543ZM218.913 129V115.98H215.853V114H218.913V108.63H221.163V114H224.613V115.98H221.163V129H218.913ZM236.438 117.03L232.688 129H230.108L225.398 114H227.798L231.398 126.21L235.208 114H237.668L241.478 126.21L245.078 114H247.478L242.768 129H240.188L236.438 117.03ZM261.278 126.6C260.078 128.36 258.288 129.24 255.908 129.24C253.748 129.24 251.988 128.49 250.628 126.99C249.308 125.51 248.648 123.68 248.648 121.5C248.648 119.32 249.308 117.49 250.628 116.01C251.988 114.51 253.798 113.76 256.058 113.76C258.318 113.76 260.058 114.65 261.278 116.43V114H263.528V129H261.278V126.6ZM256.208 127.2C257.828 127.2 259.108 126.64 260.048 125.52C260.948 124.46 261.398 123.12 261.398 121.5C261.398 119.88 260.948 118.54 260.048 117.48C259.108 116.36 257.828 115.8 256.208 115.8C254.608 115.8 253.308 116.36 252.308 117.48C251.368 118.54 250.898 119.88 250.898 121.5C250.898 123.12 251.368 124.46 252.308 125.52C253.308 126.64 254.608 127.2 256.208 127.2ZM275.34 113.76V116.01H275.07C273.45 116.01 272.13 116.66 271.11 117.96C270.15 119.2 269.67 120.68 269.67 122.4V129H267.42V114H269.67V117.69C270.15 116.13 271.19 114.98 272.79 114.24C273.45 113.92 274.25 113.76 275.19 113.76H275.34ZM284.071 127.2C286.091 127.2 287.541 126.36 288.421 124.68H290.881C290.361 126.04 289.531 127.14 288.391 127.98C287.271 128.82 285.821 129.24 284.041 129.24C281.781 129.24 279.941 128.49 278.521 126.99C277.141 125.53 276.451 123.7 276.451 121.5C276.451 119.28 277.111 117.45 278.431 116.01C279.831 114.51 281.651 113.76 283.891 113.76C286.131 113.76 287.951 114.51 289.351 116.01C290.671 117.45 291.331 119.28 291.331 121.5V122.4H278.761C278.921 123.78 279.471 124.92 280.411 125.82C281.371 126.74 282.591 127.2 284.071 127.2ZM283.891 115.8C282.511 115.8 281.351 116.23 280.411 117.09C279.531 117.91 278.991 118.98 278.791 120.3H288.991C288.791 118.98 288.251 117.91 287.371 117.09C286.431 116.23 285.271 115.8 283.891 115.8ZM309.317 109.14C310.497 109.14 311.637 109.37 312.737 109.83C313.837 110.27 314.807 110.92 315.647 111.78C317.507 113.68 318.437 116.11 318.437 119.07C318.437 122.03 317.507 124.46 315.647 126.36C314.807 127.22 313.837 127.88 312.737 128.34C311.637 128.78 310.497 129 309.317 129H300.947V109.14H309.317ZM309.227 126.87C311.307 126.87 312.997 126.1 314.297 124.56C315.557 123.08 316.187 121.25 316.187 119.07C316.187 116.89 315.557 115.06 314.297 113.58C312.997 112.04 311.307 111.27 309.227 111.27H303.197V126.87H309.227ZM328.28 127.2C330.3 127.2 331.75 126.36 332.63 124.68H335.09C334.57 126.04 333.74 127.14 332.6 127.98C331.48 128.82 330.03 129.24 328.25 129.24C325.99 129.24 324.15 128.49 322.73 126.99C321.35 125.53 320.66 123.7 320.66 121.5C320.66 119.28 321.32 117.45 322.64 116.01C324.04 114.51 325.86 113.76 328.1 113.76C330.34 113.76 332.16 114.51 333.56 116.01C334.88 117.45 335.54 119.28 335.54 121.5V122.4H322.97C323.13 123.78 323.68 124.92 324.62 125.82C325.58 126.74 326.8 127.2 328.28 127.2ZM328.1 115.8C326.72 115.8 325.56 116.23 324.62 117.09C323.74 117.91 323.2 118.98 323 120.3H333.2C333 118.98 332.46 117.91 331.58 117.09C330.64 116.23 329.48 115.8 328.1 115.8ZM350.742 114L344.892 129H342.252L336.372 114H338.832L343.572 126.6L348.282 114H350.742ZM359.364 127.2C361.384 127.2 362.834 126.36 363.714 124.68H366.174C365.654 126.04 364.824 127.14 363.684 127.98C362.564 128.82 361.114 129.24 359.334 129.24C357.074 129.24 355.234 128.49 353.814 126.99C352.434 125.53 351.744 123.7 351.744 121.5C351.744 119.28 352.404 117.45 353.724 116.01C355.124 114.51 356.944 113.76 359.184 113.76C361.424 113.76 363.244 114.51 364.644 116.01C365.964 117.45 366.624 119.28 366.624 121.5V122.4H354.054C354.214 123.78 354.764 124.92 355.704 125.82C356.664 126.74 357.884 127.2 359.364 127.2ZM359.184 115.8C357.804 115.8 356.644 116.23 355.704 117.09C354.824 117.91 354.284 118.98 354.084 120.3H364.284C364.084 118.98 363.544 117.91 362.664 117.09C361.724 116.23 360.564 115.8 359.184 115.8ZM371.623 129H369.373V108H371.623V129ZM382.035 113.76C384.275 113.76 386.095 114.51 387.495 116.01C388.815 117.45 389.475 119.28 389.475 121.5C389.475 123.72 388.815 125.55 387.495 126.99C386.095 128.49 384.275 129.24 382.035 129.24C379.795 129.24 377.975 128.49 376.575 126.99C375.255 125.55 374.595 123.72 374.595 121.5C374.595 119.28 375.255 117.45 376.575 116.01C377.975 114.51 379.795 113.76 382.035 113.76ZM382.035 127.2C383.655 127.2 384.935 126.64 385.875 125.52C386.775 124.46 387.225 123.12 387.225 121.5C387.225 119.88 386.775 118.54 385.875 117.48C384.935 116.36 383.655 115.8 382.035 115.8C380.415 115.8 379.135 116.36 378.195 117.48C377.295 118.54 376.845 119.88 376.845 121.5C376.845 123.12 377.295 124.46 378.195 125.52C379.135 126.64 380.415 127.2 382.035 127.2ZM394.709 116.4C395.909 114.64 397.699 113.76 400.079 113.76C402.239 113.76 403.989 114.51 405.329 116.01C406.669 117.49 407.339 119.32 407.339 121.5C407.339 123.68 406.669 125.51 405.329 126.99C403.989 128.49 402.189 129.24 399.929 129.24C397.669 129.24 395.929 128.35 394.709 126.57V134.94H392.459V114H394.709V116.4ZM399.779 115.8C398.159 115.8 396.879 116.36 395.939 117.48C395.039 118.54 394.589 119.88 394.589 121.5C394.589 123.12 395.039 124.46 395.939 125.52C396.879 126.64 398.159 127.2 399.779 127.2C401.379 127.2 402.679 126.64 403.679 125.52C404.619 124.46 405.089 123.12 405.089 121.5C405.089 119.88 404.619 118.54 403.679 117.48C402.679 116.36 401.379 115.8 399.779 115.8ZM416.961 127.2C418.981 127.2 420.431 126.36 421.311 124.68H423.771C423.251 126.04 422.421 127.14 421.281 127.98C420.161 128.82 418.711 129.24 416.931 129.24C414.671 129.24 412.831 128.49 411.411 126.99C410.031 125.53 409.341 123.7 409.341 121.5C409.341 119.28 410.001 117.45 411.321 116.01C412.721 114.51 414.541 113.76 416.781 113.76C419.021 113.76 420.841 114.51 422.241 116.01C423.561 117.45 424.221 119.28 424.221 121.5V122.4H411.651C411.811 123.78 412.361 124.92 413.301 125.82C414.261 126.74 415.481 127.2 416.961 127.2ZM416.781 115.8C415.401 115.8 414.241 116.23 413.301 117.09C412.421 117.91 411.881 118.98 411.681 120.3H421.881C421.681 118.98 421.141 117.91 420.261 117.09C419.321 116.23 418.161 115.8 416.781 115.8ZM434.89 113.76V116.01H434.62C433 116.01 431.68 116.66 430.66 117.96C429.7 119.2 429.22 120.68 429.22 122.4V129H426.97V114H429.22V117.69C429.7 116.13 430.74 114.98 432.34 114.24C433 113.92 433.8 113.76 434.74 113.76H434.89Z" fill="#CCCCCC"/>
</svg>
